<svg xmlns="http://www.w3.org/2000/svg" version="1.1" xmlns:xlink="http://www.w3.org/1999/xlink" xmlns:svgjs="http://svgjs.dev/svgjs" viewBox="0 0 2400 800" opacity="0.81"><defs><linearGradient x1="50%" y1="0%" x2="50%" y2="100%" id="sssurf-grad"><stop stop-color="hsl(335, 77%, 60%)" stop-opacity="1" offset="0%"></stop><stop stop-color="hsl(335, 77%, 80%)" stop-opacity="1" offset="100%"></stop></linearGradient></defs><g fill="url(#sssurf-grad)" transform="matrix(1,0,0,1,-1.936279296875,216.09642028808594)"><path d="M-10,10C158.75,48.541666666666664,464.58333333333337,209.79166666666666,800,195C1135.4166666666665,180.20833333333334,1266.6666666666665,-47.25,1600,-61C1933.3333333333335,-74.75,2181.25,32.95833333333334,2400,129C2618.75,225.04166666666666,3254.1666666666665,239.375,2650,400C2045.8333333333335,560.625,156.25,795.8333333333334,-500,900" transform="matrix(1,0,0,1,0,30)" opacity="0.05"></path><path d="M-10,10C158.75,48.541666666666664,464.58333333333337,209.79166666666666,800,195C1135.4166666666665,180.20833333333334,1266.6666666666665,-47.25,1600,-61C1933.3333333333335,-74.75,2181.25,32.95833333333334,2400,129C2618.75,225.04166666666666,3254.1666666666665,239.375,2650,400C2045.8333333333335,560.625,156.25,795.8333333333334,-500,900" transform="matrix(1,0,0,1,0,60)" opacity="0.16"></path><path d="M-10,10C158.75,48.541666666666664,464.58333333333337,209.79166666666666,800,195C1135.4166666666665,180.20833333333334,1266.6666666666665,-47.25,1600,-61C1933.3333333333335,-74.75,2181.25,32.95833333333334,2400,129C2618.75,225.04166666666666,3254.1666666666665,239.375,2650,400C2045.8333333333335,560.625,156.25,795.8333333333334,-500,900" transform="matrix(1,0,0,1,0,90)" opacity="0.26"></path><path d="M-10,10C158.75,48.541666666666664,464.58333333333337,209.79166666666666,800,195C1135.4166666666665,180.20833333333334,1266.6666666666665,-47.25,1600,-61C1933.3333333333335,-74.75,2181.25,32.95833333333334,2400,129C2618.75,225.04166666666666,3254.1666666666665,239.375,2650,400C2045.8333333333335,560.625,156.25,795.8333333333334,-500,900" transform="matrix(1,0,0,1,0,120)" opacity="0.37"></path><path d="M-10,10C158.75,48.541666666666664,464.58333333333337,209.79166666666666,800,195C1135.4166666666665,180.20833333333334,1266.6666666666665,-47.25,1600,-61C1933.3333333333335,-74.75,2181.25,32.95833333333334,2400,129C2618.75,225.04166666666666,3254.1666666666665,239.375,2650,400C2045.8333333333335,560.625,156.25,795.8333333333334,-500,900" transform="matrix(1,0,0,1,0,150)" opacity="0.47"></path><path d="M-10,10C158.75,48.541666666666664,464.58333333333337,209.79166666666666,800,195C1135.4166666666665,180.20833333333334,1266.6666666666665,-47.25,1600,-61C1933.3333333333335,-74.75,2181.25,32.95833333333334,2400,129C2618.75,225.04166666666666,3254.1666666666665,239.375,2650,400C2045.8333333333335,560.625,156.25,795.8333333333334,-500,900" transform="matrix(1,0,0,1,0,180)" opacity="0.58"></path><path d="M-10,10C158.75,48.541666666666664,464.58333333333337,209.79166666666666,800,195C1135.4166666666665,180.20833333333334,1266.6666666666665,-47.25,1600,-61C1933.3333333333335,-74.75,2181.25,32.95833333333334,2400,129C2618.75,225.04166666666666,3254.1666666666665,239.375,2650,400C2045.8333333333335,560.625,156.25,795.8333333333334,-500,900" transform="matrix(1,0,0,1,0,210)" opacity="0.68"></path><path d="M-10,10C158.75,48.541666666666664,464.58333333333337,209.79166666666666,800,195C1135.4166666666665,180.20833333333334,1266.6666666666665,-47.25,1600,-61C1933.3333333333335,-74.75,2181.25,32.95833333333334,2400,129C2618.75,225.04166666666666,3254.1666666666665,239.375,2650,400C2045.8333333333335,560.625,156.25,795.8333333333334,-500,900" transform="matrix(1,0,0,1,0,240)" opacity="0.79"></path><path d="M-10,10C158.75,48.541666666666664,464.58333333333337,209.79166666666666,800,195C1135.4166666666665,180.20833333333334,1266.6666666666665,-47.25,1600,-61C1933.3333333333335,-74.75,2181.25,32.95833333333334,2400,129C2618.75,225.04166666666666,3254.1666666666665,239.375,2650,400C2045.8333333333335,560.625,156.25,795.8333333333334,-500,900" transform="matrix(1,0,0,1,0,270)" opacity="0.89"></path><path d="M-10,10C158.75,48.541666666666664,464.58333333333337,209.79166666666666,800,195C1135.4166666666665,180.20833333333334,1266.6666666666665,-47.25,1600,-61C1933.3333333333335,-74.75,2181.25,32.95833333333334,2400,129C2618.75,225.04166666666666,3254.1666666666665,239.375,2650,400C2045.8333333333335,560.625,156.25,795.8333333333334,-500,900" transform="matrix(1,0,0,1,0,300)" opacity="1.00"></path></g></svg>